<?xml version="1.0" encoding="UTF-8" standalone="no"?>
<!DOCTYPE svg PUBLIC "-//W3C//DTD SVG 1.1//EN"
 "http://www.w3.org/Graphics/SVG/1.1/DTD/svg11.dtd">
<!-- Generated by graphviz version 2.50.0 (20211204.2007)
 -->
<!-- Title: g Pages: 1 -->
<svg width="509pt" height="83pt"
 viewBox="0.00 0.00 509.08 83.00" xmlns="http://www.w3.org/2000/svg" xmlns:xlink="http://www.w3.org/1999/xlink">
<g id="graph0" class="graph" transform="scale(1 1) rotate(0) translate(4 79)">
<title>g</title>
<polygon fill="white" stroke="transparent" points="-4,4 -4,-79 505.08,-79 505.08,4 -4,4"/>
<!-- 2 -->
<g id="node1" class="node">
<title>2</title>
<ellipse fill="none" stroke="black" cx="208.09" cy="-22" rx="27" ry="18"/>
<text text-anchor="middle" x="208.09" y="-18.3" font-family="Times New Roman,serif" font-size="14.00">2</text>
</g>
<!-- 2&#45;&gt;2 -->
<g id="edge2" class="edge">
<title>2&#45;&gt;2</title>
<path fill="none" stroke="black" d="M199.52,-39.41C197.92,-49.09 200.78,-58 208.09,-58 212.66,-58 215.49,-54.52 216.58,-49.54"/>
<polygon fill="black" stroke="black" points="220.08,-49.44 216.66,-39.41 213.08,-49.38 220.08,-49.44"/>
<text text-anchor="middle" x="208.09" y="-61.8" font-family="Times New Roman,serif" font-size="14.00">l</text>
</g>
<!-- 3 -->
<g id="node2" class="node">
<title>3</title>
<ellipse fill="none" stroke="black" cx="306.09" cy="-57" rx="27" ry="18"/>
<text text-anchor="middle" x="306.09" y="-53.3" font-family="Times New Roman,serif" font-size="14.00">3</text>
</g>
<!-- 2&#45;&gt;3 -->
<g id="edge1" class="edge">
<title>2&#45;&gt;3</title>
<path fill="none" stroke="black" d="M232.33,-30.47C244.36,-34.86 259.24,-40.28 272.41,-45.08"/>
<polygon fill="black" stroke="black" points="271.47,-48.47 282.07,-48.61 273.87,-41.89 271.47,-48.47"/>
<text text-anchor="middle" x="257.09" y="-43.8" font-family="Times New Roman,serif" font-size="14.00">b</text>
</g>
<!-- __terminal__ -->
<g id="node3" class="node">
<title>__terminal__</title>
<ellipse fill="none" stroke="black" cx="438.59" cy="-22" rx="58.49" ry="18"/>
<ellipse fill="none" stroke="black" cx="438.59" cy="-22" rx="62.49" ry="22"/>
<text text-anchor="middle" x="438.59" y="-18.3" font-family="Times New Roman,serif" font-size="14.00">__terminal__</text>
</g>
<!-- 2&#45;&gt;__terminal__ -->
<g id="edge5" class="edge">
<title>2&#45;&gt;__terminal__</title>
<path fill="none" stroke="black" d="M234.97,-18.79C248.16,-17.31 264.45,-15.73 279.09,-15 308,-13.56 339.88,-14.48 367.42,-16.07"/>
<polygon fill="black" stroke="black" points="367.55,-19.58 377.74,-16.7 367.98,-12.59 367.55,-19.58"/>
<text text-anchor="middle" x="306.09" y="-18.8" font-family="Times New Roman,serif" font-size="14.00">y</text>
</g>
<!-- 3&#45;&gt;__terminal__ -->
<g id="edge3" class="edge">
<title>3&#45;&gt;__terminal__</title>
<path fill="none" stroke="black" d="M331.33,-50.5C344.7,-46.91 361.93,-42.29 378.62,-37.82"/>
<polygon fill="black" stroke="black" points="379.59,-41.18 388.34,-35.21 377.78,-34.42 379.59,-41.18"/>
<text text-anchor="middle" x="354.59" y="-47.8" font-family="Times New Roman,serif" font-size="14.00">&#39;&#39;</text>
</g>
<!-- __initial__ -->
<g id="node4" class="node">
<title>__initial__</title>
<ellipse fill="none" stroke="black" cx="89.35" cy="-22" rx="48.99" ry="18"/>
<text text-anchor="middle" x="89.35" y="-18.3" font-family="Times New Roman,serif" font-size="14.00">__initial__</text>
</g>
<!-- __initial__&#45;&gt;2 -->
<g id="edge4" class="edge">
<title>__initial__&#45;&gt;2</title>
<path fill="none" stroke="black" d="M138.17,-22C149.01,-22 160.36,-22 170.64,-22"/>
<polygon fill="black" stroke="black" points="170.91,-25.5 180.9,-22 170.9,-18.5 170.91,-25.5"/>
<text text-anchor="middle" x="159.59" y="-25.8" font-family="Times New Roman,serif" font-size="14.00">x</text>
</g>
<!-- __initial__&#45;&gt;2 -->
<g id="edge6" class="edge">
<title>__initial__&#45;&gt;2</title>
<path fill="none" stroke="black" d="M119.91,-7.92C133.06,-3.31 148.77,-0.04 163.09,-3 167.61,-3.93 172.24,-5.36 176.72,-7.01"/>
<polygon fill="black" stroke="black" points="175.6,-10.34 186.18,-10.91 178.27,-3.86 175.6,-10.34"/>
<text text-anchor="middle" x="159.59" y="-6.8" font-family="Times New Roman,serif" font-size="14.00">a</text>
</g>
<!-- __initial____initial -->
<g id="node5" class="node">
<title>__initial____initial</title>
<ellipse fill="black" stroke="black" cx="1.8" cy="-22" rx="1.8" ry="1.8"/>
</g>
<!-- __initial____initial&#45;&gt;__initial__ -->
<g id="edge7" class="edge">
<title>__initial____initial&#45;&gt;__initial__</title>
<path fill="none" stroke="black" d="M3.76,-22C6.92,-22 17.52,-22 30.19,-22"/>
<polygon fill="black" stroke="black" points="30.2,-25.5 40.2,-22 30.2,-18.5 30.2,-25.5"/>
</g>
</g>
</svg>
