<?xml version="1.0" encoding="UTF-8" standalone="no"?>
<!DOCTYPE svg PUBLIC "-//W3C//DTD SVG 1.1//EN"
 "http://www.w3.org/Graphics/SVG/1.1/DTD/svg11.dtd">
<!-- Generated by graphviz version 2.50.0 (20211204.2007)
 -->
<!-- Title: g Pages: 1 -->
<svg width="306pt" height="114pt"
 viewBox="0.00 0.00 305.60 114.00" xmlns="http://www.w3.org/2000/svg" xmlns:xlink="http://www.w3.org/1999/xlink">
<g id="graph0" class="graph" transform="scale(1 1) rotate(0) translate(4 110)">
<title>g</title>
<polygon fill="white" stroke="transparent" points="-4,4 -4,-110 301.6,-110 301.6,4 -4,4"/>
<!-- 1 -->
<g id="node1" class="node">
<title>1</title>
<ellipse fill="none" stroke="black" cx="67.6" cy="-26" rx="27" ry="18"/>
<text text-anchor="middle" x="67.6" y="-22.3" font-family="Times New Roman,serif" font-size="14.00">1</text>
</g>
<!-- 2 -->
<g id="node2" class="node">
<title>2</title>
<ellipse fill="none" stroke="black" cx="164.6" cy="-53" rx="27" ry="18"/>
<text text-anchor="middle" x="164.6" y="-49.3" font-family="Times New Roman,serif" font-size="14.00">2</text>
</g>
<!-- 1&#45;&gt;2 -->
<g id="edge1" class="edge">
<title>1&#45;&gt;2</title>
<path fill="none" stroke="black" d="M93.32,-31.99C101.69,-34.1 111.08,-36.56 119.6,-39 123.02,-39.98 126.57,-41.04 130.11,-42.12"/>
<polygon fill="black" stroke="black" points="129.34,-45.55 139.93,-45.19 131.43,-38.87 129.34,-45.55"/>
<text text-anchor="middle" x="116.1" y="-42.8" font-family="Times New Roman,serif" font-size="14.00">a</text>
</g>
<!-- 2&#45;&gt;2 -->
<g id="edge3" class="edge">
<title>2&#45;&gt;2</title>
<path fill="none" stroke="black" d="M156.03,-70.41C154.43,-80.09 157.29,-89 164.6,-89 169.17,-89 172,-85.52 173.09,-80.54"/>
<polygon fill="black" stroke="black" points="176.59,-80.44 173.17,-70.41 169.59,-80.38 176.59,-80.44"/>
<text text-anchor="middle" x="164.6" y="-92.8" font-family="Times New Roman,serif" font-size="14.00">l</text>
</g>
<!-- 3 -->
<g id="node3" class="node">
<title>3</title>
<ellipse fill="none" stroke="black" cx="266.6" cy="-84" rx="27" ry="18"/>
<ellipse fill="none" stroke="black" cx="266.6" cy="-84" rx="31" ry="22"/>
<text text-anchor="middle" x="266.6" y="-80.3" font-family="Times New Roman,serif" font-size="14.00">3</text>
</g>
<!-- 2&#45;&gt;3 -->
<g id="edge2" class="edge">
<title>2&#45;&gt;3</title>
<path fill="none" stroke="black" d="M189.3,-60.35C200.9,-63.94 215.13,-68.36 228.16,-72.39"/>
<polygon fill="black" stroke="black" points="227.23,-75.77 237.81,-75.39 229.3,-69.08 227.23,-75.77"/>
<text text-anchor="middle" x="213.6" y="-71.8" font-family="Times New Roman,serif" font-size="14.00">b</text>
</g>
<!-- 5 -->
<g id="node5" class="node">
<title>5</title>
<ellipse fill="none" stroke="black" cx="266.6" cy="-22" rx="27" ry="18"/>
<ellipse fill="none" stroke="black" cx="266.6" cy="-22" rx="31" ry="22"/>
<text text-anchor="middle" x="266.6" y="-18.3" font-family="Times New Roman,serif" font-size="14.00">5</text>
</g>
<!-- 2&#45;&gt;5 -->
<g id="edge5" class="edge">
<title>2&#45;&gt;5</title>
<path fill="none" stroke="black" d="M189.3,-45.65C200.9,-42.06 215.13,-37.64 228.16,-33.61"/>
<polygon fill="black" stroke="black" points="229.3,-36.92 237.81,-30.61 227.23,-30.23 229.3,-36.92"/>
<text text-anchor="middle" x="213.6" y="-43.8" font-family="Times New Roman,serif" font-size="14.00">y</text>
</g>
<!-- 4 -->
<g id="node4" class="node">
<title>4</title>
<ellipse fill="none" stroke="black" cx="67.6" cy="-80" rx="27" ry="18"/>
<text text-anchor="middle" x="67.6" y="-76.3" font-family="Times New Roman,serif" font-size="14.00">4</text>
</g>
<!-- 4&#45;&gt;2 -->
<g id="edge4" class="edge">
<title>4&#45;&gt;2</title>
<path fill="none" stroke="black" d="M93.06,-73.05C104.23,-69.87 117.64,-66.06 129.75,-62.62"/>
<polygon fill="black" stroke="black" points="130.88,-65.94 139.55,-59.84 128.97,-59.2 130.88,-65.94"/>
<text text-anchor="middle" x="116.1" y="-70.8" font-family="Times New Roman,serif" font-size="14.00">x</text>
</g>
<!-- 4__initial -->
<g id="node6" class="node">
<title>4__initial</title>
<ellipse fill="black" stroke="black" cx="1.8" cy="-80" rx="1.8" ry="1.8"/>
</g>
<!-- 4__initial&#45;&gt;4 -->
<g id="edge6" class="edge">
<title>4__initial&#45;&gt;4</title>
<path fill="none" stroke="black" d="M3.91,-80C7.37,-80 18.49,-80 30.42,-80"/>
<polygon fill="black" stroke="black" points="30.48,-83.5 40.48,-80 30.48,-76.5 30.48,-83.5"/>
</g>
<!-- 1__initial -->
<g id="node7" class="node">
<title>1__initial</title>
<ellipse fill="black" stroke="black" cx="1.8" cy="-26" rx="1.8" ry="1.8"/>
</g>
<!-- 1__initial&#45;&gt;1 -->
<g id="edge7" class="edge">
<title>1__initial&#45;&gt;1</title>
<path fill="none" stroke="black" d="M3.91,-26C7.37,-26 18.49,-26 30.42,-26"/>
<polygon fill="black" stroke="black" points="30.48,-29.5 40.48,-26 30.48,-22.5 30.48,-29.5"/>
</g>
</g>
</svg>
