<?xml version="1.0" encoding="UTF-8" standalone="no"?>
<!DOCTYPE svg PUBLIC "-//W3C//DTD SVG 1.1//EN"
 "http://www.w3.org/Graphics/SVG/1.1/DTD/svg11.dtd">
<!-- Generated by graphviz version 2.50.0 (20211204.2007)
 -->
<!-- Title: g Pages: 1 -->
<svg width="606pt" height="104pt"
 viewBox="0.00 0.00 606.08 104.00" xmlns="http://www.w3.org/2000/svg" xmlns:xlink="http://www.w3.org/1999/xlink">
<g id="graph0" class="graph" transform="scale(1 1) rotate(0) translate(4 100)">
<title>g</title>
<polygon fill="white" stroke="transparent" points="-4,4 -4,-100 602.08,-100 602.08,4 -4,4"/>
<!-- 1 -->
<g id="node1" class="node">
<title>1</title>
<ellipse fill="none" stroke="black" cx="208.09" cy="-72" rx="27" ry="18"/>
<text text-anchor="middle" x="208.09" y="-68.3" font-family="Times New Roman,serif" font-size="14.00">1</text>
</g>
<!-- 2 -->
<g id="node2" class="node">
<title>2</title>
<ellipse fill="none" stroke="black" cx="305.09" cy="-45" rx="27" ry="18"/>
<text text-anchor="middle" x="305.09" y="-41.3" font-family="Times New Roman,serif" font-size="14.00">2</text>
</g>
<!-- 1&#45;&gt;2 -->
<g id="edge1" class="edge">
<title>1&#45;&gt;2</title>
<path fill="none" stroke="black" d="M233.56,-65.05C244.72,-61.87 258.13,-58.06 270.25,-54.62"/>
<polygon fill="black" stroke="black" points="271.38,-57.94 280.04,-51.84 269.46,-51.2 271.38,-57.94"/>
<text text-anchor="middle" x="256.59" y="-62.8" font-family="Times New Roman,serif" font-size="14.00">a</text>
</g>
<!-- 2&#45;&gt;2 -->
<g id="edge3" class="edge">
<title>2&#45;&gt;2</title>
<path fill="none" stroke="black" d="M296.52,-62.41C294.92,-72.09 297.78,-81 305.09,-81 309.66,-81 312.49,-77.52 313.58,-72.54"/>
<polygon fill="black" stroke="black" points="317.08,-72.44 313.66,-62.41 310.08,-72.38 317.08,-72.44"/>
<text text-anchor="middle" x="305.09" y="-84.8" font-family="Times New Roman,serif" font-size="14.00">l</text>
</g>
<!-- 3 -->
<g id="node3" class="node">
<title>3</title>
<ellipse fill="none" stroke="black" cx="403.09" cy="-72" rx="27" ry="18"/>
<text text-anchor="middle" x="403.09" y="-68.3" font-family="Times New Roman,serif" font-size="14.00">3</text>
</g>
<!-- 2&#45;&gt;3 -->
<g id="edge2" class="edge">
<title>2&#45;&gt;3</title>
<path fill="none" stroke="black" d="M330.32,-51.81C341.8,-55.04 355.71,-58.96 368.22,-62.47"/>
<polygon fill="black" stroke="black" points="367.3,-65.85 377.87,-65.19 369.2,-59.11 367.3,-65.85"/>
<text text-anchor="middle" x="354.09" y="-62.8" font-family="Times New Roman,serif" font-size="14.00">b</text>
</g>
<!-- 5 -->
<g id="node5" class="node">
<title>5</title>
<ellipse fill="none" stroke="black" cx="403.09" cy="-18" rx="27" ry="18"/>
<text text-anchor="middle" x="403.09" y="-14.3" font-family="Times New Roman,serif" font-size="14.00">5</text>
</g>
<!-- 2&#45;&gt;5 -->
<g id="edge5" class="edge">
<title>2&#45;&gt;5</title>
<path fill="none" stroke="black" d="M330.32,-38.19C341.8,-34.96 355.71,-31.04 368.22,-27.53"/>
<polygon fill="black" stroke="black" points="369.2,-30.89 377.87,-24.81 367.3,-24.15 369.2,-30.89"/>
<text text-anchor="middle" x="354.09" y="-36.8" font-family="Times New Roman,serif" font-size="14.00">y</text>
</g>
<!-- __terminal__ -->
<g id="node6" class="node">
<title>__terminal__</title>
<ellipse fill="none" stroke="black" cx="535.59" cy="-45" rx="58.49" ry="18"/>
<ellipse fill="none" stroke="black" cx="535.59" cy="-45" rx="62.49" ry="22"/>
<text text-anchor="middle" x="535.59" y="-41.3" font-family="Times New Roman,serif" font-size="14.00">__terminal__</text>
</g>
<!-- 3&#45;&gt;__terminal__ -->
<g id="edge6" class="edge">
<title>3&#45;&gt;__terminal__</title>
<path fill="none" stroke="black" d="M429.25,-66.79C441.4,-64.28 456.58,-61.14 471.6,-58.03"/>
<polygon fill="black" stroke="black" points="472.33,-61.46 481.41,-56 470.91,-54.6 472.33,-61.46"/>
<text text-anchor="middle" x="451.59" y="-65.8" font-family="Times New Roman,serif" font-size="14.00">&#39;&#39;</text>
</g>
<!-- 4 -->
<g id="node4" class="node">
<title>4</title>
<ellipse fill="none" stroke="black" cx="208.09" cy="-18" rx="27" ry="18"/>
<text text-anchor="middle" x="208.09" y="-14.3" font-family="Times New Roman,serif" font-size="14.00">4</text>
</g>
<!-- 4&#45;&gt;2 -->
<g id="edge4" class="edge">
<title>4&#45;&gt;2</title>
<path fill="none" stroke="black" d="M233.56,-24.95C244.72,-28.13 258.13,-31.94 270.25,-35.38"/>
<polygon fill="black" stroke="black" points="269.46,-38.8 280.04,-38.16 271.38,-32.06 269.46,-38.8"/>
<text text-anchor="middle" x="256.59" y="-36.8" font-family="Times New Roman,serif" font-size="14.00">x</text>
</g>
<!-- 5&#45;&gt;__terminal__ -->
<g id="edge8" class="edge">
<title>5&#45;&gt;__terminal__</title>
<path fill="none" stroke="black" d="M429.25,-23.21C441.4,-25.72 456.58,-28.86 471.6,-31.97"/>
<polygon fill="black" stroke="black" points="470.91,-35.4 481.41,-34 472.33,-28.54 470.91,-35.4"/>
<text text-anchor="middle" x="451.59" y="-32.8" font-family="Times New Roman,serif" font-size="14.00">&#39;&#39;</text>
</g>
<!-- __initial__ -->
<g id="node7" class="node">
<title>__initial__</title>
<ellipse fill="none" stroke="black" cx="89.35" cy="-45" rx="48.99" ry="18"/>
<text text-anchor="middle" x="89.35" y="-41.3" font-family="Times New Roman,serif" font-size="14.00">__initial__</text>
</g>
<!-- __initial__&#45;&gt;1 -->
<g id="edge9" class="edge">
<title>__initial__&#45;&gt;1</title>
<path fill="none" stroke="black" d="M131.18,-54.44C144.67,-57.56 159.54,-61 172.51,-64"/>
<polygon fill="black" stroke="black" points="171.92,-67.46 182.45,-66.3 173.49,-60.64 171.92,-67.46"/>
<text text-anchor="middle" x="159.59" y="-64.8" font-family="Times New Roman,serif" font-size="14.00">&#39;&#39;</text>
</g>
<!-- __initial__&#45;&gt;4 -->
<g id="edge7" class="edge">
<title>__initial__&#45;&gt;4</title>
<path fill="none" stroke="black" d="M131.18,-35.56C144.67,-32.44 159.54,-29 172.51,-26"/>
<polygon fill="black" stroke="black" points="173.49,-29.36 182.45,-23.7 171.92,-22.54 173.49,-29.36"/>
<text text-anchor="middle" x="159.59" y="-33.8" font-family="Times New Roman,serif" font-size="14.00">&#39;&#39;</text>
</g>
<!-- __initial____initial -->
<g id="node8" class="node">
<title>__initial____initial</title>
<ellipse fill="black" stroke="black" cx="1.8" cy="-45" rx="1.8" ry="1.8"/>
</g>
<!-- __initial____initial&#45;&gt;__initial__ -->
<g id="edge10" class="edge">
<title>__initial____initial&#45;&gt;__initial__</title>
<path fill="none" stroke="black" d="M3.76,-45C6.92,-45 17.52,-45 30.19,-45"/>
<polygon fill="black" stroke="black" points="30.2,-48.5 40.2,-45 30.2,-41.5 30.2,-48.5"/>
</g>
</g>
</svg>
