<?xml version="1.0" encoding="UTF-8" standalone="no"?>
<!DOCTYPE svg PUBLIC "-//W3C//DTD SVG 1.1//EN"
 "http://www.w3.org/Graphics/SVG/1.1/DTD/svg11.dtd">
<!-- Generated by graphviz version 2.50.0 (20211204.2007)
 -->
<!-- Title: g Pages: 1 -->
<svg width="429pt" height="99pt"
 viewBox="0.00 0.00 429.08 99.00" xmlns="http://www.w3.org/2000/svg" xmlns:xlink="http://www.w3.org/1999/xlink">
<g id="graph0" class="graph" transform="scale(1 1) rotate(0) translate(4 95)">
<title>g</title>
<polygon fill="white" stroke="transparent" points="-4,4 -4,-95 425.08,-95 425.08,4 -4,4"/>
<!-- 3 -->
<g id="node1" class="node">
<title>3</title>
<ellipse fill="none" stroke="black" cx="226.09" cy="-73" rx="27" ry="18"/>
<text text-anchor="middle" x="226.09" y="-69.3" font-family="Times New Roman,serif" font-size="14.00">3</text>
</g>
<!-- __terminal__ -->
<g id="node2" class="node">
<title>__terminal__</title>
<ellipse fill="none" stroke="black" cx="358.59" cy="-22" rx="58.49" ry="18"/>
<ellipse fill="none" stroke="black" cx="358.59" cy="-22" rx="62.49" ry="22"/>
<text text-anchor="middle" x="358.59" y="-18.3" font-family="Times New Roman,serif" font-size="14.00">__terminal__</text>
</g>
<!-- 3&#45;&gt;__terminal__ -->
<g id="edge1" class="edge">
<title>3&#45;&gt;__terminal__</title>
<path fill="none" stroke="black" d="M249.82,-64.12C265.51,-57.99 287.01,-49.58 306.68,-41.9"/>
<polygon fill="black" stroke="black" points="308.11,-45.09 316.15,-38.19 305.56,-38.57 308.11,-45.09"/>
<text text-anchor="middle" x="274.59" y="-58.8" font-family="Times New Roman,serif" font-size="14.00">&#39;&#39;</text>
</g>
<!-- __initial__ -->
<g id="node3" class="node">
<title>__initial__</title>
<ellipse fill="none" stroke="black" cx="89.35" cy="-38" rx="48.99" ry="18"/>
<text text-anchor="middle" x="89.35" y="-34.3" font-family="Times New Roman,serif" font-size="14.00">__initial__</text>
</g>
<!-- __initial__&#45;&gt;3 -->
<g id="edge2" class="edge">
<title>__initial__&#45;&gt;3</title>
<path fill="none" stroke="black" d="M114.63,-53.39C126.62,-60.14 141.6,-67.35 156.09,-71 166.55,-73.64 178.18,-74.67 188.87,-74.9"/>
<polygon fill="black" stroke="black" points="189.17,-78.4 199.17,-74.88 189.16,-71.4 189.17,-78.4"/>
<text text-anchor="middle" x="168.59" y="-77.8" font-family="Times New Roman,serif" font-size="14.00">xl*b</text>
</g>
<!-- __initial__&#45;&gt;3 -->
<g id="edge4" class="edge">
<title>__initial__&#45;&gt;3</title>
<path fill="none" stroke="black" d="M136.64,-42.49C151.08,-44.59 166.92,-47.63 181.09,-52 185.8,-53.45 190.64,-55.33 195.31,-57.36"/>
<polygon fill="black" stroke="black" points="194.01,-60.62 204.56,-61.67 196.97,-54.27 194.01,-60.62"/>
<text text-anchor="middle" x="168.59" y="-55.8" font-family="Times New Roman,serif" font-size="14.00">al*b</text>
</g>
<!-- __initial__&#45;&gt;__terminal__ -->
<g id="edge3" class="edge">
<title>__initial__&#45;&gt;__terminal__</title>
<path fill="none" stroke="black" d="M137.44,-34.89C156.57,-33.65 178.89,-32.22 199.09,-31 227.63,-29.27 259.07,-27.47 286.37,-25.93"/>
<polygon fill="black" stroke="black" points="286.83,-29.41 296.62,-25.35 286.44,-22.42 286.83,-29.41"/>
<text text-anchor="middle" x="226.09" y="-34.8" font-family="Times New Roman,serif" font-size="14.00">xl*y</text>
</g>
<!-- __initial__&#45;&gt;__terminal__ -->
<g id="edge5" class="edge">
<title>__initial__&#45;&gt;__terminal__</title>
<path fill="none" stroke="black" d="M126.12,-25.94C147.11,-19.5 174.29,-12.25 199.09,-9 229.82,-4.97 264.08,-6.98 292.86,-10.5"/>
<polygon fill="black" stroke="black" points="292.43,-13.97 302.8,-11.8 293.34,-7.03 292.43,-13.97"/>
<text text-anchor="middle" x="226.09" y="-12.8" font-family="Times New Roman,serif" font-size="14.00">al*y</text>
</g>
<!-- __initial____initial -->
<g id="node4" class="node">
<title>__initial____initial</title>
<ellipse fill="black" stroke="black" cx="1.8" cy="-38" rx="1.8" ry="1.8"/>
</g>
<!-- __initial____initial&#45;&gt;__initial__ -->
<g id="edge6" class="edge">
<title>__initial____initial&#45;&gt;__initial__</title>
<path fill="none" stroke="black" d="M3.76,-38C6.92,-38 17.52,-38 30.19,-38"/>
<polygon fill="black" stroke="black" points="30.2,-41.5 40.2,-38 30.2,-34.5 30.2,-41.5"/>
</g>
</g>
</svg>
