<?xml version="1.0" encoding="UTF-8" standalone="no"?>
<!DOCTYPE svg PUBLIC "-//W3C//DTD SVG 1.1//EN"
 "http://www.w3.org/Graphics/SVG/1.1/DTD/svg11.dtd">
<!-- Generated by graphviz version 2.50.0 (20211204.2007)
 -->
<!-- Title: g Pages: 1 -->
<svg width="332pt" height="100pt"
 viewBox="0.00 0.00 332.08 100.24" xmlns="http://www.w3.org/2000/svg" xmlns:xlink="http://www.w3.org/1999/xlink">
<g id="graph0" class="graph" transform="scale(1 1) rotate(0) translate(4 96.24)">
<title>g</title>
<polygon fill="white" stroke="transparent" points="-4,4 -4,-96.24 328.08,-96.24 328.08,4 -4,4"/>
<!-- __initial__ -->
<g id="node1" class="node">
<title>__initial__</title>
<ellipse fill="none" stroke="black" cx="89.35" cy="-41.24" rx="48.99" ry="18"/>
<text text-anchor="middle" x="89.35" y="-37.54" font-family="Times New Roman,serif" font-size="14.00">__initial__</text>
</g>
<!-- __terminal__ -->
<g id="node2" class="node">
<title>__terminal__</title>
<ellipse fill="none" stroke="black" cx="261.59" cy="-41.24" rx="58.49" ry="18"/>
<ellipse fill="none" stroke="black" cx="261.59" cy="-41.24" rx="62.49" ry="22"/>
<text text-anchor="middle" x="261.59" y="-37.54" font-family="Times New Roman,serif" font-size="14.00">__terminal__</text>
</g>
<!-- __initial__&#45;&gt;__terminal__ -->
<g id="edge1" class="edge">
<title>__initial__&#45;&gt;__terminal__</title>
<path fill="none" stroke="black" d="M113.25,-57.01C125.39,-64.42 140.91,-72.45 156.09,-76.24 178.37,-81.8 202.72,-74.45 222.3,-65.08"/>
<polygon fill="black" stroke="black" points="223.92,-68.19 231.23,-60.52 220.73,-61.96 223.92,-68.19"/>
<text text-anchor="middle" x="168.59" y="-81.04" font-family="Times New Roman,serif" font-size="14.00">xl*y</text>
</g>
<!-- __initial__&#45;&gt;__terminal__ -->
<g id="edge2" class="edge">
<title>__initial__&#45;&gt;__terminal__</title>
<path fill="none" stroke="black" d="M138.22,-41.24C153.86,-41.24 171.58,-41.24 188.59,-41.24"/>
<polygon fill="black" stroke="black" points="189.07,-44.74 199.07,-41.24 189.07,-37.74 189.07,-44.74"/>
<text text-anchor="middle" x="168.59" y="-45.04" font-family="Times New Roman,serif" font-size="14.00">al*y</text>
</g>
<!-- __initial__&#45;&gt;__terminal__ -->
<g id="edge3" class="edge">
<title>__initial__&#45;&gt;__terminal__</title>
<path fill="none" stroke="black" d="M125.43,-29.12C135.24,-26.28 145.97,-23.67 156.09,-22.24 171.97,-19.99 189.11,-21.46 204.83,-24.38"/>
<polygon fill="black" stroke="black" points="204.43,-27.87 214.93,-26.49 205.86,-21.02 204.43,-27.87"/>
<text text-anchor="middle" x="168.59" y="-26.04" font-family="Times New Roman,serif" font-size="14.00">xl*b</text>
</g>
<!-- __initial__&#45;&gt;__terminal__ -->
<g id="edge4" class="edge">
<title>__initial__&#45;&gt;__terminal__</title>
<path fill="none" stroke="black" d="M111.22,-24.9C123.53,-16.33 139.84,-6.7 156.09,-2.24 179.57,4.2 205.2,-5.09 225.19,-16.22"/>
<polygon fill="black" stroke="black" points="223.57,-19.32 233.96,-21.41 227.14,-13.3 223.57,-19.32"/>
<text text-anchor="middle" x="168.59" y="-6.04" font-family="Times New Roman,serif" font-size="14.00">al*b</text>
</g>
<!-- __initial____initial -->
<g id="node3" class="node">
<title>__initial____initial</title>
<ellipse fill="black" stroke="black" cx="1.8" cy="-41.24" rx="1.8" ry="1.8"/>
</g>
<!-- __initial____initial&#45;&gt;__initial__ -->
<g id="edge5" class="edge">
<title>__initial____initial&#45;&gt;__initial__</title>
<path fill="none" stroke="black" d="M3.76,-41.24C6.92,-41.24 17.52,-41.24 30.19,-41.24"/>
<polygon fill="black" stroke="black" points="30.2,-44.74 40.2,-41.24 30.2,-37.74 30.2,-44.74"/>
</g>
</g>
</svg>
