<?xml version="1.0" encoding="UTF-8" standalone="no"?>
<!DOCTYPE svg PUBLIC "-//W3C//DTD SVG 1.1//EN"
 "http://www.w3.org/Graphics/SVG/1.1/DTD/svg11.dtd">
<!-- Generated by graphviz version 2.50.0 (20211204.2007)
 -->
<!-- Title: g Pages: 1 -->
<svg width="606pt" height="83pt"
 viewBox="0.00 0.00 606.08 83.00" xmlns="http://www.w3.org/2000/svg" xmlns:xlink="http://www.w3.org/1999/xlink">
<g id="graph0" class="graph" transform="scale(1 1) rotate(0) translate(4 79)">
<title>g</title>
<polygon fill="white" stroke="transparent" points="-4,4 -4,-79 602.08,-79 602.08,4 -4,4"/>
<!-- 1 -->
<g id="node1" class="node">
<title>1</title>
<ellipse fill="none" stroke="black" cx="208.09" cy="-57" rx="27" ry="18"/>
<text text-anchor="middle" x="208.09" y="-53.3" font-family="Times New Roman,serif" font-size="14.00">1</text>
</g>
<!-- 2 -->
<g id="node2" class="node">
<title>2</title>
<ellipse fill="none" stroke="black" cx="305.09" cy="-22" rx="27" ry="18"/>
<text text-anchor="middle" x="305.09" y="-18.3" font-family="Times New Roman,serif" font-size="14.00">2</text>
</g>
<!-- 1&#45;&gt;2 -->
<g id="edge1" class="edge">
<title>1&#45;&gt;2</title>
<path fill="none" stroke="black" d="M232.09,-48.53C243.9,-44.17 258.5,-38.8 271.46,-34.02"/>
<polygon fill="black" stroke="black" points="272.8,-37.26 280.98,-30.52 270.38,-30.69 272.8,-37.26"/>
<text text-anchor="middle" x="256.59" y="-43.8" font-family="Times New Roman,serif" font-size="14.00">a</text>
</g>
<!-- 2&#45;&gt;2 -->
<g id="edge3" class="edge">
<title>2&#45;&gt;2</title>
<path fill="none" stroke="black" d="M296.52,-39.41C294.92,-49.09 297.78,-58 305.09,-58 309.66,-58 312.49,-54.52 313.58,-49.54"/>
<polygon fill="black" stroke="black" points="317.08,-49.44 313.66,-39.41 310.08,-49.38 317.08,-49.44"/>
<text text-anchor="middle" x="305.09" y="-61.8" font-family="Times New Roman,serif" font-size="14.00">l</text>
</g>
<!-- 3 -->
<g id="node3" class="node">
<title>3</title>
<ellipse fill="none" stroke="black" cx="403.09" cy="-57" rx="27" ry="18"/>
<text text-anchor="middle" x="403.09" y="-53.3" font-family="Times New Roman,serif" font-size="14.00">3</text>
</g>
<!-- 2&#45;&gt;3 -->
<g id="edge2" class="edge">
<title>2&#45;&gt;3</title>
<path fill="none" stroke="black" d="M329.33,-30.47C341.36,-34.86 356.24,-40.28 369.41,-45.08"/>
<polygon fill="black" stroke="black" points="368.47,-48.47 379.07,-48.61 370.87,-41.89 368.47,-48.47"/>
<text text-anchor="middle" x="354.09" y="-43.8" font-family="Times New Roman,serif" font-size="14.00">b</text>
</g>
<!-- __terminal__ -->
<g id="node4" class="node">
<title>__terminal__</title>
<ellipse fill="none" stroke="black" cx="535.59" cy="-22" rx="58.49" ry="18"/>
<ellipse fill="none" stroke="black" cx="535.59" cy="-22" rx="62.49" ry="22"/>
<text text-anchor="middle" x="535.59" y="-18.3" font-family="Times New Roman,serif" font-size="14.00">__terminal__</text>
</g>
<!-- 2&#45;&gt;__terminal__ -->
<g id="edge7" class="edge">
<title>2&#45;&gt;__terminal__</title>
<path fill="none" stroke="black" d="M331.97,-18.79C345.16,-17.31 361.45,-15.73 376.09,-15 405,-13.56 436.88,-14.48 464.42,-16.07"/>
<polygon fill="black" stroke="black" points="464.55,-19.58 474.74,-16.7 464.98,-12.59 464.55,-19.58"/>
<text text-anchor="middle" x="403.09" y="-18.8" font-family="Times New Roman,serif" font-size="14.00">y</text>
</g>
<!-- 3&#45;&gt;__terminal__ -->
<g id="edge4" class="edge">
<title>3&#45;&gt;__terminal__</title>
<path fill="none" stroke="black" d="M428.33,-50.5C441.7,-46.91 458.93,-42.29 475.62,-37.82"/>
<polygon fill="black" stroke="black" points="476.59,-41.18 485.34,-35.21 474.78,-34.42 476.59,-41.18"/>
<text text-anchor="middle" x="451.59" y="-47.8" font-family="Times New Roman,serif" font-size="14.00">&#39;&#39;</text>
</g>
<!-- __initial__ -->
<g id="node5" class="node">
<title>__initial__</title>
<ellipse fill="none" stroke="black" cx="89.35" cy="-22" rx="48.99" ry="18"/>
<text text-anchor="middle" x="89.35" y="-18.3" font-family="Times New Roman,serif" font-size="14.00">__initial__</text>
</g>
<!-- __initial__&#45;&gt;1 -->
<g id="edge5" class="edge">
<title>__initial__&#45;&gt;1</title>
<path fill="none" stroke="black" d="M127.61,-33.17C142.21,-37.55 158.86,-42.54 173.13,-46.82"/>
<polygon fill="black" stroke="black" points="172.45,-50.27 183.03,-49.79 174.46,-43.56 172.45,-50.27"/>
<text text-anchor="middle" x="159.59" y="-46.8" font-family="Times New Roman,serif" font-size="14.00">&#39;&#39;</text>
</g>
<!-- __initial__&#45;&gt;2 -->
<g id="edge6" class="edge">
<title>__initial__&#45;&gt;2</title>
<path fill="none" stroke="black" d="M136.63,-17.43C165.04,-15.21 202.18,-13.33 235.09,-15 245.82,-15.54 257.46,-16.56 268.06,-17.65"/>
<polygon fill="black" stroke="black" points="267.93,-21.16 278.25,-18.75 268.69,-14.2 267.93,-21.16"/>
<text text-anchor="middle" x="208.09" y="-18.8" font-family="Times New Roman,serif" font-size="14.00">x</text>
</g>
<!-- __initial____initial -->
<g id="node6" class="node">
<title>__initial____initial</title>
<ellipse fill="black" stroke="black" cx="1.8" cy="-22" rx="1.8" ry="1.8"/>
</g>
<!-- __initial____initial&#45;&gt;__initial__ -->
<g id="edge8" class="edge">
<title>__initial____initial&#45;&gt;__initial__</title>
<path fill="none" stroke="black" d="M3.76,-22C6.92,-22 17.52,-22 30.19,-22"/>
<polygon fill="black" stroke="black" points="30.2,-25.5 40.2,-22 30.2,-18.5 30.2,-25.5"/>
</g>
</g>
</svg>
