<?xml version="1.0" encoding="UTF-8" standalone="no"?><!DOCTYPE svg PUBLIC "-//W3C//DTD SVG 1.1//EN" "http://www.w3.org/Graphics/SVG/1.1/DTD/svg11.dtd"><!-- Generated by graphviz version 2.40.1 (20161225.0304)
 --><!-- Title: g Pages: 1 --><svg xmlns="http://www.w3.org/2000/svg" xmlns:xlink="http://www.w3.org/1999/xlink" width="385pt" height="124pt" viewBox="0.00 0.00 384.92 123.80">
<g id="graph0" class="graph" transform="scale(1 1) rotate(0) translate(4 119.8)">
<title>g</title>
<polygon fill="#ffffff" stroke="transparent" points="-4,4 -4,-119.8 380.9219,-119.8 380.9219,4 -4,4"/>
<!-- 0 -->
<g id="node1" class="node">
<title>0</title>
<ellipse fill="none" stroke="#000000" cx="160.9219" cy="-59" rx="18" ry="18"/>
<ellipse fill="none" stroke="#000000" cx="160.9219" cy="-59" rx="22" ry="22"/>
<text text-anchor="middle" x="160.9219" y="-54.8" font-family="Times,serif" font-size="14.00" fill="#000000">0</text>
</g>
<!-- 0&#45;&gt;0 -->
<g id="edge1" class="edge">
<title>0-&gt;0</title>
<path fill="none" stroke="#000000" d="M153.2391,-79.9908C152.2907,-90.0872 154.8516,-99 160.9219,-99 164.8107,-99 167.2592,-95.3422 168.2675,-90.0587"/>
<polygon fill="#000000" stroke="#000000" points="171.7679,-90.1023 168.6046,-79.9908 164.7718,-89.868 171.7679,-90.1023"/>
<text text-anchor="middle" x="160.9219" y="-103.2" font-family="Times,serif" font-size="14.00" fill="#000000">0</text>
</g>
<!-- 1 -->
<g id="node2" class="node">
<title>1</title>
<ellipse fill="none" stroke="#000000" cx="252.9219" cy="-35" rx="27" ry="18"/>
<text text-anchor="middle" x="252.9219" y="-30.8" font-family="Times,serif" font-size="14.00" fill="#000000">1</text>
</g>
<!-- 0&#45;&gt;1 -->
<g id="edge2" class="edge">
<title>0-&gt;1</title>
<path fill="none" stroke="#000000" d="M183.1394,-57.3317C191.0459,-56.4322 199.9593,-55.0649 207.9219,-53 212.1369,-51.9069 216.4866,-50.5202 220.7444,-49.0033"/>
<polygon fill="#000000" stroke="#000000" points="222.3183,-52.1485 230.4057,-45.3043 219.8153,-45.6113 222.3183,-52.1485"/>
<text text-anchor="middle" x="204.4219" y="-58.2" font-family="Times,serif" font-size="14.00" fill="#000000">1</text>
</g>
<!-- 1&#45;&gt;0 -->
<g id="edge4" class="edge">
<title>1-&gt;0</title>
<path fill="none" stroke="#000000" d="M226.8405,-30.1061C218.4188,-29.4431 209.1393,-29.7016 200.9219,-32.2 195.8534,-33.741 190.843,-36.1614 186.1726,-38.9315"/>
<polygon fill="#000000" stroke="#000000" points="184.0912,-36.1118 177.6842,-44.5499 187.9549,-41.949 184.0912,-36.1118"/>
<text text-anchor="middle" x="204.4219" y="-37.2" font-family="Times,serif" font-size="14.00" fill="#000000">1</text>
</g>
<!-- 2 -->
<g id="node3" class="node">
<title>2</title>
<ellipse fill="none" stroke="#000000" cx="349.9219" cy="-35" rx="27" ry="18"/>
<text text-anchor="middle" x="349.9219" y="-30.8" font-family="Times,serif" font-size="14.00" fill="#000000">2</text>
</g>
<!-- 1&#45;&gt;2 -->
<g id="edge3" class="edge">
<title>1-&gt;2</title>
<path fill="none" stroke="#000000" d="M279.9418,-35C290.0523,-35 301.7235,-35 312.6013,-35"/>
<polygon fill="#000000" stroke="#000000" points="312.7105,-38.5001 322.7104,-35 312.7104,-31.5001 312.7105,-38.5001"/>
<text text-anchor="middle" x="301.4219" y="-39.2" font-family="Times,serif" font-size="14.00" fill="#000000">0</text>
</g>
<!-- 2&#45;&gt;1 -->
<g id="edge5" class="edge">
<title>2-&gt;1</title>
<path fill="none" stroke="#000000" d="M331.1359,-21.5043C321.4554,-16.1074 309.3174,-11.6938 297.9219,-14.2 293.0307,-15.2757 288.0382,-16.937 283.2431,-18.8621"/>
<polygon fill="#000000" stroke="#000000" points="281.4836,-15.8143 273.7735,-23.0811 284.3323,-22.2085 281.4836,-15.8143"/>
<text text-anchor="middle" x="301.4219" y="-19.2" font-family="Times,serif" font-size="14.00" fill="#000000">0</text>
</g>
<!-- 2&#45;&gt;2 -->
<g id="edge6" class="edge">
<title>2-&gt;2</title>
<path fill="none" stroke="#000000" d="M341.3525,-52.4099C339.7529,-62.0879 342.6094,-71 349.9219,-71 354.4922,-71 357.3219,-67.5187 358.4109,-62.5449"/>
<polygon fill="#000000" stroke="#000000" points="361.9117,-62.4374 358.4912,-52.4099 354.912,-62.3818 361.9117,-62.4374"/>
<text text-anchor="middle" x="349.9219" y="-75.2" font-family="Times,serif" font-size="14.00" fill="#000000">1</text>
</g>
<!-- start -->
<g id="node4" class="node">
<title>start</title>
<ellipse fill="none" stroke="#000000" cx="68.2609" cy="-18" rx="27.8228" ry="18"/>
<text text-anchor="middle" x="68.2609" y="-13.8" font-family="Times,serif" font-size="14.00" fill="#000000">start</text>
</g>
<!-- start&#45;&gt;0 -->
<g id="edge7" class="edge">
<title>start-&gt;0</title>
<path fill="none" stroke="#000000" d="M91.1659,-28.1348C103.2946,-33.5015 118.33,-40.1542 131.3327,-45.9076"/>
<polygon fill="#000000" stroke="#000000" points="130.237,-49.25 140.798,-50.0957 133.0694,-42.8486 130.237,-49.25"/>
<text text-anchor="middle" x="117.4219" y="-45.2" font-family="Times,serif" font-size="14.00" fill="#000000">0</text>
</g>
<!-- start&#45;&gt;1 -->
<g id="edge8" class="edge">
<title>start-&gt;1</title>
<path fill="none" stroke="#000000" d="M95.3121,-13.0274C118.6596,-9.5362 153.2138,-6.2877 182.9219,-11.2 195.4593,-13.2731 208.7684,-17.3021 220.3773,-21.4642"/>
<polygon fill="#000000" stroke="#000000" points="219.4873,-24.8687 230.0794,-25.1103 221.9498,-18.3161 219.4873,-24.8687"/>
<text text-anchor="middle" x="160.9219" y="-16.2" font-family="Times,serif" font-size="14.00" fill="#000000">1</text>
</g>
<!-- start__initial -->
<g id="node5" class="node">
<title>start__initial</title>
<ellipse fill="#000000" stroke="#000000" cx="1.8" cy="-18" rx="1.8" ry="1.8"/>
</g>
<!-- start__initial&#45;&gt;start -->
<g id="edge9" class="edge">
<title>start__initial-&gt;start</title>
<path fill="none" stroke="#000000" d="M3.7174,-18C7.9644,-18 18.7049,-18 30.2323,-18"/>
<polygon fill="#000000" stroke="#000000" points="30.4216,-21.5001 40.4215,-18 30.4215,-14.5001 30.4216,-21.5001"/>
</g>
</g>
</svg>