<?xml version="1.0" encoding="UTF-8" standalone="no"?><!DOCTYPE svg PUBLIC "-//W3C//DTD SVG 1.1//EN" "http://www.w3.org/Graphics/SVG/1.1/DTD/svg11.dtd"><!-- Generated by graphviz version 2.40.1 (20161225.0304)
 --><!-- Title: g Pages: 1 --><svg xmlns="http://www.w3.org/2000/svg" xmlns:xlink="http://www.w3.org/1999/xlink" width="287pt" height="120pt" viewBox="0.00 0.00 286.60 119.80">
<g id="graph0" class="graph" transform="scale(1 1) rotate(0) translate(4 115.8)">
<title>g</title>
<polygon fill="#ffffff" stroke="transparent" points="-4,4 -4,-115.8 282.6,-115.8 282.6,4 -4,4"/>
<!-- 1 -->
<g id="node1" class="node">
<title>1</title>
<ellipse fill="none" stroke="#000000" cx="67.6" cy="-22" rx="27" ry="18"/>
<text text-anchor="middle" x="67.6" y="-17.8" font-family="Times,serif" font-size="14.00" fill="#000000">1</text>
</g>
<!-- 1&#45;&gt;1 -->
<g id="edge1" class="edge">
<title>1-&gt;1</title>
<path fill="none" stroke="#000000" d="M59.7448,-39.4099C58.2785,-49.0879 60.8969,-58 67.6,-58 71.7895,-58 74.3833,-54.5187 75.3816,-49.5449"/>
<polygon fill="#000000" stroke="#000000" points="78.8824,-49.4351 75.4552,-39.4099 71.8826,-49.3842 78.8824,-49.4351"/>
<text text-anchor="middle" x="67.6" y="-62.2" font-family="Times,serif" font-size="14.00" fill="#000000">a</text>
</g>
<!-- 2 -->
<g id="node2" class="node">
<title>2</title>
<ellipse fill="none" stroke="#000000" cx="164.6" cy="-59" rx="27" ry="18"/>
<text text-anchor="middle" x="164.6" y="-54.8" font-family="Times,serif" font-size="14.00" fill="#000000">2</text>
</g>
<!-- 1&#45;&gt;2 -->
<g id="edge2" class="edge">
<title>1-&gt;2</title>
<path fill="none" stroke="#000000" d="M91.081,-30.9567C103.1446,-35.5583 118.0521,-41.2446 131.283,-46.2914"/>
<polygon fill="#000000" stroke="#000000" points="130.4083,-49.7037 140.999,-49.9976 132.9031,-43.1634 130.4083,-49.7037"/>
<text text-anchor="middle" x="116.1" y="-46.2" font-family="Times,serif" font-size="14.00" fill="#000000">b</text>
</g>
<!-- 2&#45;&gt;2 -->
<g id="edge3" class="edge">
<title>2-&gt;2</title>
<path fill="none" stroke="#000000" d="M156.0307,-76.4099C154.4311,-86.0879 157.2875,-95 164.6,-95 169.1703,-95 172,-91.5187 173.089,-86.5449"/>
<polygon fill="#000000" stroke="#000000" points="176.5899,-86.4374 173.1693,-76.4099 169.5901,-86.3818 176.5899,-86.4374"/>
<text text-anchor="middle" x="164.6" y="-99.2" font-family="Times,serif" font-size="14.00" fill="#000000">c</text>
</g>
<!-- 3 -->
<g id="node3" class="node">
<title>3</title>
<ellipse fill="none" stroke="#000000" cx="256.6" cy="-22" rx="18" ry="18"/>
<ellipse fill="none" stroke="#000000" cx="256.6" cy="-22" rx="22" ry="22"/>
<text text-anchor="middle" x="256.6" y="-17.8" font-family="Times,serif" font-size="14.00" fill="#000000">3</text>
</g>
<!-- 2&#45;&gt;3 -->
<g id="edge4" class="edge">
<title>2-&gt;3</title>
<path fill="none" stroke="#000000" d="M187.8155,-49.6633C199.4922,-44.9673 213.7894,-39.2173 226.3183,-34.1785"/>
<polygon fill="#000000" stroke="#000000" points="227.9314,-37.3023 235.9032,-30.3237 225.3195,-30.8078 227.9314,-37.3023"/>
<text text-anchor="middle" x="213.1" y="-45.2" font-family="Times,serif" font-size="14.00" fill="#000000">d</text>
</g>
<!-- 3&#45;&gt;1 -->
<g id="edge6" class="edge">
<title>3-&gt;1</title>
<path fill="none" stroke="#000000" d="M234.6811,-19.132C222.0998,-17.6301 205.9902,-15.9507 191.6,-15.2 167.6326,-13.9497 161.5719,-14.0384 137.6,-15.2 126.8983,-15.7186 115.3086,-16.6806 104.697,-17.7211"/>
<polygon fill="#000000" stroke="#000000" points="104.0689,-14.2672 94.4805,-18.7743 104.7867,-21.2303 104.0689,-14.2672"/>
<text text-anchor="middle" x="164.6" y="-20.2" font-family="Times,serif" font-size="14.00" fill="#000000">x</text>
</g>
<!-- 3&#45;&gt;3 -->
<g id="edge5" class="edge">
<title>3-&gt;3</title>
<path fill="none" stroke="#000000" d="M248.9173,-42.9908C247.9688,-53.0872 250.5297,-62 256.6,-62 260.4888,-62 262.9373,-58.3422 263.9456,-53.0587"/>
<polygon fill="#000000" stroke="#000000" points="267.446,-53.1023 264.2827,-42.9908 260.4499,-52.868 267.446,-53.1023"/>
<text text-anchor="middle" x="256.6" y="-66.2" font-family="Times,serif" font-size="14.00" fill="#000000">e</text>
</g>
<!-- 1__initial -->
<g id="node4" class="node">
<title>1__initial</title>
<ellipse fill="#000000" stroke="#000000" cx="1.8" cy="-22" rx="1.8" ry="1.8"/>
</g>
<!-- 1__initial&#45;&gt;1 -->
<g id="edge7" class="edge">
<title>1__initial-&gt;1</title>
<path fill="none" stroke="#000000" d="M3.6983,-22C7.9356,-22 18.702,-22 30.2151,-22"/>
<polygon fill="#000000" stroke="#000000" points="30.3795,-25.5001 40.3795,-22 30.3794,-18.5001 30.3795,-25.5001"/>
</g>
</g>
</svg>